
        <svg xmlns="http://www.w3.org/2000/svg" xmlns:xlink="http://www.w3.org/1999/xlink" version="1.1" width="3171.4285714285716" height="2064.740761463316" viewBox="0 0 3171.4285714285716 2064.740761463316">
&#x9;&#x9;&#x9;
&#x9;&#x9;&#x9;<g transform="scale(8.571428571428571) translate(10, 10)">
&#x9;&#x9;&#x9;&#x9;<defs id="SvgjsDefs6119"></defs><g id="SvgjsG6120" featureKey="nameContainer" transform="matrix(1,0,0,1,0,0)" fill="#bd9859"><rect y="0" height="1" width="1" opacity="0"></rect><rect y="189" width="350" height="5"></rect></g><g id="SvgjsG6121" featureKey="s6yzU4-0" transform="matrix(4.468379497528076,0,0,4.468379497528076,0.0000010653447138934587,-8.380391070390186)" fill="#e6b86d"><path d="M4.74 5.68 c2.02 0 3.66 1.64 3.66 3.64 c0 2.12 -1.54 3.66 -3.66 3.66 l-4 0 l0 5.72 c0 0.2 -0.16 0.36 -0.38 0.36 c-0.2 0 -0.36 -0.16 -0.36 -0.36 l0 -12.66 c0 -0.2 0.16 -0.36 0.36 -0.36 l4.38 0 z M4.74 12.24 c1.72 0 2.92 -1.2 2.92 -2.92 c0 -1.6 -1.3 -2.9 -2.92 -2.9 l-3.98 0 l0 5.82 l3.98 0 z M24.2 17.58 c-3.28 0 -5.96 -2.66 -5.96 -5.96 c0 -3.28 2.68 -5.94 5.96 -5.94 s5.96 2.66 5.96 5.94 c0 3.3 -2.68 5.96 -5.96 5.96 z M24.2 6.42 c-2.88 0 -5.22 2.34 -5.22 5.2 c0 2.88 2.34 5.22 5.22 5.22 s5.22 -2.34 5.22 -5.22 c0 -2.86 -2.34 -5.2 -5.22 -5.2 z M29.08 17.34 c0.16 -0.12 0.4 -0.1 0.52 0.08 c0.12 0.16 0.1 0.38 -0.06 0.5 c-1.6 1.24 -3.9 1.88 -5.34 1.88 c-3.44 0 -5.14 -1.78 -6.78 -3.48 c-1.62 -1.7 -3.14 -3.3 -6.32 -3.34 l-1.34 0 l0 5.7 c0 0.22 -0.16 0.38 -0.38 0.38 c-0.2 0 -0.36 -0.16 -0.36 -0.38 l0 -12.64 c0 -0.2 0.16 -0.36 0.36 -0.36 l4.16 0 c2.02 0 3.66 1.64 3.66 3.64 c0 1.86 -1.16 3.26 -2.88 3.58 c1.52 0.7 2.6 1.8 3.64 2.9 c1.6 1.68 3.12 3.26 6.24 3.26 c1.32 0 3.42 -0.58 4.88 -1.72 z M9.78 6.42 l0 5.82 l3.76 0 c1.72 0 2.92 -1.2 2.92 -2.92 c0 -1.6 -1.3 -2.9 -2.92 -2.9 l-3.76 0 z M36.06 5.68 c2.02 0 3.66 1.64 3.66 3.64 c0 2.12 -1.54 3.66 -3.66 3.66 l-4 0 l0 5.72 c0 0.2 -0.16 0.36 -0.38 0.36 c-0.2 0 -0.36 -0.16 -0.36 -0.36 l0 -12.66 c0 -0.2 0.16 -0.36 0.36 -0.36 l4.38 0 z M36.06 12.24 c1.72 0 2.92 -1.2 2.92 -2.92 c0 -1.6 -1.3 -2.9 -2.92 -2.9 l-3.98 0 l0 5.82 l3.98 0 z M48.84 18.32 c0.2 0 0.36 0.16 0.36 0.36 c0 0.22 -0.16 0.38 -0.36 0.38 l-7.74 0 c-0.2 0 -0.36 -0.16 -0.36 -0.38 l0 -12.64 c0 -0.2 0.16 -0.36 0.36 -0.36 l6.84 0 c0.2 0 0.36 0.16 0.36 0.36 s-0.16 0.38 -0.36 0.38 l-6.46 0 l0 4.46 l5.6 0 c0.2 0 0.36 0.16 0.36 0.36 s-0.16 0.38 -0.36 0.38 l-5.6 0 l0 6.7 l7.36 0 z M54.86 12.92 l2.94 5.6 c0.1 0.18 0.02 0.4 -0.16 0.5 c-0.06 0.02 -0.1 0.04 -0.16 0.04 c-0.14 0 -0.26 -0.06 -0.34 -0.2 l-3.08 -5.88 l-3.88 0 l0 5.72 c0 0.2 -0.16 0.36 -0.38 0.36 c-0.2 0 -0.36 -0.16 -0.36 -0.36 l0 -12.66 c0 -0.2 0.16 -0.36 0.36 -0.36 l4.38 0 c2.02 0 3.66 1.64 3.66 3.64 c0 1.9 -1.22 3.32 -2.98 3.6 z M50.2 6.42 l0 5.82 l3.98 0 c1.72 0 2.92 -1.2 2.92 -2.92 c0 -1.6 -1.3 -2.9 -2.92 -2.9 l-3.98 0 z M68.06 5.68 c0.2 0 0.36 0.16 0.36 0.36 c0 0.22 -0.16 0.38 -0.36 0.38 l-4.34 0 l0 12.28 c0 0.2 -0.16 0.36 -0.36 0.36 c-0.22 0 -0.38 -0.16 -0.38 -0.36 l0 -12.28 l-4.34 0 c-0.2 0 -0.36 -0.16 -0.36 -0.38 c0 -0.2 0.16 -0.36 0.36 -0.36 l9.42 0 z M78.14 5.74 c0.18 0.1 0.24 0.34 0.14 0.5 l-4.26 7.52 l0 4.94 c0 0.2 -0.16 0.36 -0.36 0.36 c-0.22 0 -0.38 -0.16 -0.38 -0.36 l0 -4.94 l-4.24 -7.52 c-0.1 -0.16 -0.04 -0.4 0.14 -0.5 s0.4 -0.04 0.5 0.14 l3.98 7.04 l3.98 -7.04 c0.1 -0.18 0.32 -0.24 0.5 -0.14 z"></path></g><g id="SvgjsG6122" featureKey="s6yzU4-1" transform="matrix(5.952670097351074,0,0,5.952670097351074,-0.017007175983701238,60.59380846810531)" fill="#e6b86d"><path d="M4.88 19.42 c-2.02 0 -3.64 -0.7 -4.8 -2.1 c-0.12 -0.14 -0.1 -0.38 0.06 -0.52 c0.14 -0.12 0.38 -0.1 0.52 0.06 c1 1.22 2.42 1.82 4.22 1.82 c2.04 0 3.66 -1.28 3.66 -2.94 c0 -1.6 -2.06 -2.52 -4.02 -3.42 c-2.06 -0.92 -4.2 -1.88 -4.2 -3.74 c0 -1.58 1.18 -3.26 4.5 -3.26 c0.54 0 2.4 0.1 3.64 1.5 c0.14 0.16 0.12 0.4 -0.04 0.52 c-0.14 0.14 -0.38 0.12 -0.52 -0.02 c-0.82 -0.94 -2.12 -1.26 -3.08 -1.26 c-2.34 0 -3.76 0.94 -3.76 2.52 c0 1.38 1.82 2.2 3.76 3.08 c2.18 0.98 4.46 2 4.46 4.08 s-1.94 3.68 -4.4 3.68 z M16.76 19.42 c-3.74 0 -6.78 -3.16 -6.78 -7.06 c0 -3.88 3.04 -7.06 6.78 -7.06 c2.28 0 4.4 1.18 5.66 3.16 c0.1 0.16 0.06 0.4 -0.1 0.5 c-0.16 0.12 -0.38 0.08 -0.5 -0.1 c-1.12 -1.76 -3.02 -2.82 -5.06 -2.82 c-3.34 0 -6.08 2.84 -6.08 6.32 s2.74 6.32 6.08 6.32 c2.04 0 3.94 -1.04 5.06 -2.82 c0.12 -0.16 0.34 -0.2 0.5 -0.1 c0.16 0.12 0.2 0.34 0.1 0.52 c-1.26 1.96 -3.38 3.14 -5.66 3.14 z M31 19.06 c-3.9 0 -7.06 -3.16 -7.06 -7.06 s3.16 -7.06 7.06 -7.06 s7.06 3.16 7.06 7.06 s-3.16 7.06 -7.06 7.06 z M31 5.68 c-3.48 0 -6.32 2.84 -6.32 6.32 s2.84 6.32 6.32 6.32 s6.32 -2.84 6.32 -6.32 s-2.84 -6.32 -6.32 -6.32 z M43.26 19.42 c-3.04 0 -4.72 -1.66 -4.72 -4.72 l0 -8.66 c0 -0.2 0.16 -0.36 0.36 -0.36 c0.22 0 0.38 0.16 0.38 0.36 l0 8.66 c0 2.64 1.34 3.98 3.98 3.98 c2.72 0 3.98 -1.26 3.98 -3.98 l0 -8.66 c0 -0.2 0.18 -0.36 0.38 -0.36 s0.36 0.16 0.36 0.36 l0 8.66 c0 1.5 -0.36 2.66 -1.1 3.44 c-0.78 0.86 -2 1.28 -3.62 1.28 z M58.44 5.68 c0.2 0 0.36 0.16 0.36 0.36 c0 0.22 -0.16 0.38 -0.36 0.38 l-4.34 0 l0 12.28 c0 0.2 -0.16 0.36 -0.36 0.36 c-0.22 0 -0.38 -0.16 -0.38 -0.36 l0 -12.28 l-4.34 0 c-0.2 0 -0.36 -0.16 -0.36 -0.38 c0 -0.2 0.16 -0.36 0.36 -0.36 l9.42 0 z"></path></g><g id="SvgjsG6123" featureKey="sT9YGu-0" transform="matrix(0.4627971649169922,0,0,0.4627971649169922,6.185476844921679,211.46387157809022)" fill="#e6b86d"><path d="M5.62 5.84 q2.78 0 4.09 0.92 t1.31 2.96 q0 1.5 -0.89 2.47 t-2.65 1.29 l4.02 6.52 l-2.06 0 l-3.84 -6.36 l-2.16 0 l0 6.36 l-1.68 0 l0 -14.16 l3.86 0 z M5.44 12.08 q1.98 0 2.88 -0.55 t0.9 -1.79 q0 -1.2 -0.81 -1.77 t-2.51 -0.57 l-2.46 0 l0 4.68 l2 0 z M41.02 5.84 l0 1.56 l-7.22 0 l0 4.44 l6.74 0 l0 1.56 l-6.74 0 l0 5.04 l7.58 0 l0 1.56 l-9.26 0 l0 -14.16 l8.9 0 z M68.3 5.84 l6.02 14.16 l-1.96 0 l-1.44 -3.48 l-7.08 0 l-1.46 3.48 l-1.9 0 l6.24 -14.16 l1.58 0 z M67.44 8 l-2.94 6.96 l5.78 0 l-2.8 -6.96 l-0.04 0 z M96.02 5.84 l0 12.6 l6.48 0 l0 1.56 l-8.16 0 l0 -14.16 l1.68 0 z M152.36 5.84 l6.02 14.16 l-1.96 0 l-1.44 -3.48 l-7.08 0 l-1.46 3.48 l-1.9 0 l6.24 -14.16 l1.58 0 z M151.5 8 l-2.94 6.96 l5.78 0 l-2.8 -6.96 l-0.04 0 z M183.42 5.84 q3.1 0 5.08 1.95 t2.02 5.13 q0 3.16 -1.99 5.1 t-5.07 1.98 l-5.32 0 l0 -14.16 l5.28 0 z M183.02 18.44 q2.66 0 4.17 -1.41 t1.53 -4.11 q0 -2.6 -1.48 -4.04 t-4.22 -1.48 l-3.2 0 l0 11.04 l3.2 0 z M211.32 5.84 l4.36 11.64 l0.04 0 l4.5 -11.64 l1.78 0 l-5.54 14.16 l-1.62 0 l-5.42 -14.16 l1.9 0 z M243.4 5.84 l0 14.16 l-1.68 0 l0 -14.16 l1.68 0 z M269.2 5.48 q2.58 0 3.96 1.66 l-1.38 1.2 q-0.8 -1.26 -2.58 -1.3 q-1.34 0 -2.18 0.64 t-0.84 1.74 q0 0.96 0.64 1.52 t2.4 1.1 q2.28 0.66 3.23 1.61 t0.95 2.57 q0 1.88 -1.4 3 t-3.58 1.14 q-1.46 0 -2.6 -0.52 t-1.76 -1.44 l1.44 -1.18 q0.46 0.76 1.28 1.17 t1.74 0.41 q1.26 0 2.17 -0.71 t0.91 -1.75 q0 -0.94 -0.53 -1.48 t-1.75 -0.92 l-1.62 -0.54 q-1.82 -0.62 -2.57 -1.55 t-0.75 -2.29 q0 -1.8 1.34 -2.93 t3.48 -1.15 z M303.22 5.84 l0 1.56 l-7.22 0 l0 4.44 l6.74 0 l0 1.56 l-6.74 0 l0 5.04 l7.58 0 l0 1.56 l-9.26 0 l0 -14.16 l8.9 0 z M350.24 18.92 q0 0.48 -0.36 0.84 t-0.84 0.36 q-0.46 0 -0.83 -0.36 t-0.37 -0.84 t0.35 -0.84 t0.85 -0.36 t0.85 0.35 t0.35 0.85 z M399.28 5.84 q2.78 0 4.09 0.92 t1.31 2.96 q0 1.5 -0.89 2.47 t-2.65 1.29 l4.02 6.52 l-2.06 0 l-3.84 -6.36 l-2.16 0 l0 6.36 l-1.68 0 l0 -14.16 l3.86 0 z M399.1 12.08 q1.98 0 2.88 -0.55 t0.9 -1.79 q0 -1.2 -0.81 -1.77 t-2.51 -0.57 l-2.46 0 l0 4.68 l2 0 z M434.68 5.84 l0 1.56 l-7.22 0 l0 4.44 l6.74 0 l0 1.56 l-6.74 0 l0 5.04 l7.58 0 l0 1.56 l-9.26 0 l0 -14.16 l8.9 0 z M461.96 5.84 l6.02 14.16 l-1.96 0 l-1.44 -3.48 l-7.08 0 l-1.46 3.48 l-1.9 0 l6.24 -14.16 l1.58 0 z M461.1 8 l-2.94 6.96 l5.78 0 l-2.8 -6.96 l-0.04 0 z M489.68 5.84 l0 12.6 l6.48 0 l0 1.56 l-8.16 0 l0 -14.16 l1.68 0 z M543.7 5.84 q2.78 0 4.09 0.92 t1.31 2.96 q0 1.5 -0.89 2.47 t-2.65 1.29 l4.02 6.52 l-2.06 0 l-3.84 -6.36 l-2.16 0 l0 6.36 l-1.68 0 l0 -14.16 l3.86 0 z M543.52 12.08 q1.98 0 2.88 -0.55 t0.9 -1.79 q0 -1.2 -0.81 -1.77 t-2.51 -0.57 l-2.46 0 l0 4.68 l2 0 z M579.1 5.84 l0 1.56 l-7.22 0 l0 4.44 l6.74 0 l0 1.56 l-6.74 0 l0 5.04 l7.58 0 l0 1.56 l-9.26 0 l0 -14.16 l8.9 0 z M604.34 5.48 q2.58 0 3.96 1.66 l-1.38 1.2 q-0.8 -1.26 -2.58 -1.3 q-1.34 0 -2.18 0.64 t-0.84 1.74 q0 0.96 0.64 1.52 t2.4 1.1 q2.28 0.66 3.23 1.61 t0.95 2.57 q0 1.88 -1.4 3 t-3.58 1.14 q-1.46 0 -2.6 -0.52 t-1.76 -1.44 l1.44 -1.18 q0.46 0.76 1.28 1.17 t1.74 0.41 q1.26 0 2.17 -0.71 t0.91 -1.75 q0 -0.94 -0.53 -1.48 t-1.75 -0.92 l-1.62 -0.54 q-1.82 -0.62 -2.57 -1.55 t-0.75 -2.29 q0 -1.8 1.34 -2.93 t3.48 -1.15 z M631.08 5.84 l0 8.52 q0 2.16 0.92 3.28 t2.74 1.16 q1.82 -0.02 2.73 -1.15 t0.93 -3.21 l0 -8.6 l1.68 0 l0 8.82 q0 2.7 -1.4 4.19 t-3.94 1.51 q-2.5 0 -3.91 -1.51 t-1.43 -4.21 l0 -8.8 l1.68 0 z M663.36 5.84 l0 12.6 l6.48 0 l0 1.56 l-8.16 0 l0 -14.16 l1.68 0 z M699.32 5.84 l0 1.56 l-4.68 0 l0 12.6 l-1.68 0 l0 -12.6 l-4.68 0 l0 -1.56 l11.04 0 z M723.58 5.48 q2.58 0 3.96 1.66 l-1.38 1.2 q-0.8 -1.26 -2.58 -1.3 q-1.34 0 -2.18 0.64 t-0.84 1.74 q0 0.96 0.64 1.52 t2.4 1.1 q2.28 0.66 3.23 1.61 t0.95 2.57 q0 1.88 -1.4 3 t-3.58 1.14 q-1.46 0 -2.6 -0.52 t-1.76 -1.44 l1.44 -1.18 q0.46 0.76 1.28 1.17 t1.74 0.41 q1.26 0 2.17 -0.71 t0.91 -1.75 q0 -0.94 -0.53 -1.48 t-1.75 -0.92 l-1.62 -0.54 q-1.82 -0.62 -2.57 -1.55 t-0.75 -2.29 q0 -1.8 1.34 -2.93 t3.48 -1.15 z"></path></g>
&#x9;&#x9;&#x9;</g>
&#x9;&#x9;</svg>